<svg width="520" height="546" viewBox="0 0 520 546" fill="none" xmlns="http://www.w3.org/2000/svg">
<g opacity="0.1">
<circle cx="260" cy="260" r="259.5" stroke="#14208C"/>
<circle cx="260" cy="260" r="227.5" stroke="#14208C"/>
<circle cx="260" cy="260" r="189.5" stroke="#14208C"/>
<circle cx="260" cy="260" r="152.5" stroke="#14208C"/>
</g>
<circle cx="349.5" cy="509.5" r="36.5" fill="white"/>
<path d="M370 508.5C370 518.538 362.785 526.891 353.257 528.656C352.04 528.882 350.784 529 349.5 529C348.089 529 346.712 528.858 345.382 528.586C336.034 526.68 329 518.411 329 508.5C329 503.035 331.139 498.068 334.625 494.394C334.827 494.181 335.034 493.973 335.244 493.768C338.934 490.197 343.96 488 349.5 488C355.04 488 360.066 490.197 363.755 493.768C363.842 493.852 363.929 493.937 364.014 494.023C367.713 497.73 370 502.849 370 508.5Z" fill="#1BA27A"/>
<path d="M352.37 506V502.864H359.834V497.987H339.441V502.864H346.905V506.012C340.876 506.317 336.359 507.566 336.359 509.062C336.359 510.557 340.876 511.807 346.905 512.112V521.882C347.828 522.069 348.784 522.167 349.763 522.167C350.653 522.167 351.525 522.086 352.37 521.931V512.124C358.524 511.841 363.167 510.578 363.167 509.062C363.167 507.546 358.524 506.282 352.37 506ZM349.763 510.989C343.037 510.989 337.585 509.987 337.585 508.751C337.585 507.695 341.558 506.81 346.905 506.574V510.159C347.811 510.288 348.725 510.353 349.637 510.353C350.551 510.353 351.464 510.288 352.37 510.159V506.563C357.842 506.783 361.94 507.678 361.94 508.75C361.94 509.987 356.488 510.989 349.763 510.989Z" fill="#F0EFEB"/>
<circle cx="57.5" cy="355.5" r="36.5" fill="white"/>
<path d="M58.2 377.4C70.4606 377.4 80.3999 367.461 80.3999 355.2C80.3999 342.939 70.4606 333 58.2 333C45.9393 333 36 342.939 36 355.2C36 367.461 45.9393 377.4 58.2 377.4Z" fill="#F5B300"/>
<path d="M52.1774 343.855C52.9477 344.065 53.7181 344.205 54.4884 344.415C55.2588 344.625 56.0291 344.765 56.7995 344.975C57.0096 345.045 57.0796 344.975 57.1496 344.765C57.4298 343.575 57.7099 342.454 57.99 341.264C58.06 341.054 58.1301 340.984 58.3402 341.054C59.0405 341.264 59.6708 341.404 60.3711 341.544C60.5812 341.614 60.5812 341.684 60.5111 341.824C60.231 342.944 59.9509 344.135 59.6708 345.256C59.6708 345.326 59.6708 345.396 59.6007 345.536C60.161 345.676 60.7913 345.816 61.3515 345.956C61.4215 345.956 61.4916 345.816 61.5616 345.746C61.7717 344.835 61.9818 343.995 62.2619 343.085L62.472 342.244C62.472 342.104 62.542 342.034 62.6821 342.104C63.3824 342.314 64.0827 342.454 64.8531 342.664C64.9231 342.664 64.9231 342.734 64.9931 342.734C64.7831 343.645 64.573 344.485 64.3629 345.326C64.2928 345.676 64.2228 346.026 64.0827 346.376C64.0127 346.586 64.0827 346.656 64.2928 346.726L66.6039 347.777C67.3042 348.197 67.9345 348.757 68.4247 349.457C69.055 350.508 69.125 351.628 68.8449 352.749C68.6348 353.519 68.3547 354.219 67.7944 354.78C67.3742 355.2 66.814 355.48 66.2537 355.69C66.1837 355.69 66.1136 355.76 65.9736 355.76C66.2537 355.97 66.5338 356.11 66.814 356.32C67.6543 356.951 68.2146 357.721 68.4947 358.701C68.6348 359.472 68.5647 360.312 68.3547 361.082C68.0745 362.063 67.7244 362.903 67.0941 363.674C66.3237 364.584 65.3433 365.074 64.2228 365.214C62.7521 365.424 61.3515 365.284 59.9509 365.074C59.7408 365.004 59.6007 365.074 59.5307 365.284C59.2506 366.405 58.9704 367.595 58.6903 368.716C58.6203 368.996 58.6203 369.066 58.2701 368.926C57.6398 368.786 56.9395 368.576 56.3092 368.436C56.0992 368.366 56.0992 368.296 56.1692 368.156C56.4493 366.965 56.7294 365.775 57.0796 364.654C57.0796 364.514 57.1496 364.444 57.0096 364.374C56.4493 364.234 55.8891 364.094 55.2588 363.954C55.1187 364.584 54.9086 365.214 54.7686 365.845C54.6285 366.475 54.4184 367.105 54.2783 367.735C54.2083 367.875 54.2083 367.946 53.9982 367.875C53.2979 367.665 52.5976 367.525 51.8973 367.385C51.6872 367.315 51.6872 367.245 51.7572 367.105C52.0373 365.915 52.3175 364.724 52.6676 363.604C52.6676 363.534 52.7376 363.464 52.7376 363.323C51.1269 362.903 49.5162 362.483 47.8354 362.063C47.9755 361.783 48.0455 361.573 48.1856 361.293C48.4657 360.662 48.7459 360.032 48.956 359.472C49.026 359.262 49.096 359.262 49.3061 359.262C49.7963 359.402 50.3566 359.542 50.8468 359.612C51.4071 359.752 51.8272 359.472 51.8973 358.982C52.8077 355.41 53.7181 351.838 54.5585 348.197C54.6985 347.637 54.3484 347.006 53.7181 346.796C53.0878 346.586 52.4575 346.446 51.8973 346.306C51.7572 346.306 51.6872 346.236 51.7572 346.096C51.9673 345.326 52.1774 344.485 52.3875 343.715C52.1074 343.925 52.1074 343.925 52.1774 343.855ZM55.749 361.153C55.819 361.153 55.8891 361.223 55.8891 361.223C57.0096 361.503 58.2001 361.853 59.3906 361.923C60.231 361.993 61.0014 361.993 61.7717 361.713C63.1023 361.293 63.6625 359.542 62.8922 358.421C62.542 357.861 61.9818 357.511 61.4215 357.161C60.161 356.46 58.6903 356.18 57.2897 355.9C57.0796 355.83 57.0796 355.9 57.0096 356.11C56.8695 356.811 56.6594 357.441 56.5193 358.141C56.2392 359.122 56.0291 360.102 55.749 361.153ZM61.6316 354.009C61.7717 354.009 62.1219 353.939 62.402 353.869C63.7326 353.589 64.4329 352.049 63.7326 350.858C63.3824 350.228 62.7521 349.808 62.1219 349.527C61.1414 349.107 60.161 348.897 59.1105 348.617C58.9004 348.547 58.8304 348.617 58.7603 348.827C58.4102 350.298 58.06 351.698 57.6398 353.169C57.5698 353.309 57.6398 353.379 57.7799 353.449C58.06 353.519 58.2701 353.589 58.5503 353.659C59.6007 353.799 60.5111 354.009 61.6316 354.009Z" fill="white"/>
<ellipse cx="122.5" cy="45.5" rx="36.5" ry="36.5" fill="white"/>
<ellipse cx="122.5" cy="45.5" rx="26.5" ry="26.5" fill="#E2E8FB"/>
<path d="M134 44.914L122.504 25L111 44.914L122.504 52L134 44.914Z" fill="black"/>
<path d="M122.5 64L134 47L122.5 54.1257L111 47L122.5 64Z" fill="black"/>
<circle cx="422.5" cy="100.5" r="36.5" fill="white"/>
<path d="M400 100.5C400 113.457 410.543 124 423.5 124C436.457 124 447 113.457 447 100.5C447 87.543 436.457 77 423.5 77C410.543 77 400 87.543 400 100.5ZM413.079 101.788L418.629 98.5516L420.857 86.8486C421.022 85.9791 421.864 85.398 422.731 85.5754C423.6 85.7399 424.171 86.5795 424.006 87.449L422.299 96.4089L425.897 94.311C426.66 93.8645 427.642 94.1208 428.089 94.8878C428.533 95.6505 428.277 96.6332 427.512 97.0775L421.505 100.581L420.14 107.749L432.402 106.386C433.278 106.292 434.073 106.92 434.173 107.8C434.269 108.68 433.637 109.471 432.757 109.569L418.336 111.171C418.277 111.178 418.217 111.182 418.159 111.182C417.715 111.182 417.287 110.998 416.984 110.669C416.638 110.295 416.491 109.78 416.585 109.28L417.834 102.724L414.694 104.555C414.44 104.702 414.162 104.773 413.886 104.773C413.335 104.773 412.799 104.489 412.502 103.978C412.058 103.215 412.314 102.233 413.079 101.788Z" fill="#3378FF"/>
</svg>
